<svg xmlns="http://www.w3.org/2000/svg" viewBox="0 0 25.65 38.47"><defs><style>.cls-1{fill:#0acf83;}.cls-2{fill:#a259ff;}.cls-3{fill:#f24e1e;}.cls-4{fill:#ff7262;}.cls-5{fill:#1abcfe;}</style></defs><title>figma</title><g id="Capa_2" data-name="Capa 2"><g id="Capa_1-2" data-name="Capa 1"><path id="path0_fill" data-name="path0 fill" class="cls-1" d="M6.41,38.47a6.41,6.41,0,0,0,6.41-6.41V25.65H6.41a6.41,6.41,0,0,0,0,12.82Z"/><path id="path1_fill" data-name="path1 fill" class="cls-2" d="M0,19.23a6.42,6.42,0,0,1,6.41-6.41h6.41V25.65H6.41A6.42,6.42,0,0,1,0,19.23Z"/><path id="path1_fill-2" data-name="path1 fill" class="cls-3" d="M0,6.41A6.41,6.41,0,0,1,6.41,0h6.41V12.82H6.41A6.41,6.41,0,0,1,0,6.41Z"/><path id="path2_fill" data-name="path2 fill" class="cls-4" d="M12.82,0h6.41a6.41,6.41,0,1,1,0,12.82H12.82Z"/><path id="path3_fill" data-name="path3 fill" class="cls-5" d="M25.65,19.23a6.42,6.42,0,1,1-6.42-6.41A6.43,6.43,0,0,1,25.65,19.23Z"/></g></g></svg>