<svg xmlns="http://www.w3.org/2000/svg" viewBox="0 0 35.42 54.85"><defs><style>.cls-1{fill:#b36916;}.cls-2{fill:#d9a64e;}.cls-3{fill:#bc7117;}</style></defs><title>fusion</title><g id="Capa_2" data-name="Capa 2"><g id="Capa_1-2" data-name="Capa 1"><path class="cls-1" d="M16,54.85,1.48,53.3C.28,37.77,0,3.64,0,3.64,3.39,1.2,10.45,0,10.45,0s-8.61,7.67-7,23.32S13.13,50.62,16,54.85Z"/><path class="cls-2" d="M16,54.85C13.13,50.62,5,39,3.41,23.33S10.45,0,10.45,0,2.2,10.81,4.37,25.13,16,54.85,16,54.85Z"/><path class="cls-1" d="M18.65,24.3a3.48,3.48,0,1,0,0,7l15.47,1.37-3-8.32Z"/><path class="cls-2" d="M16,54.85s-.42-11.89.58-16.74S28.6,33,34.12,32.62L18.65,31.25a3.48,3.48,0,1,1,0-6.95H31.11s-10.33-1.36-13.77-3.23-1.86-8.1,3.51-8.46S35.42,12,35.42,12l-.22-1s-13-3.21-21.9.38S4.75,28.06,8.49,37.23,16,54.85,16,54.85Z"/><path class="cls-3" d="M16,54.85S12.23,46.4,8.49,37.23,4.43,15,13.3,11.41,35.2,11,35.2,11l-1.72-8A84.6,84.6,0,0,0,10.45,0S2.2,10.81,4.37,25.13,16,54.85,16,54.85Z"/></g></g></svg>