<svg xmlns="http://www.w3.org/2000/svg" viewBox="0 0 46.4 45.25"><defs><style>.cls-1{fill:#320100;}.cls-2{fill:#fb9b00;}</style></defs><title>illustrator</title><g id="Capa_2" data-name="Capa 2"><g id="Capa_1-2" data-name="Capa 1"><g id="joIOn5.tif"><path class="cls-1" d="M0,37.61v-30c.05-.34.09-.67.16-1A8.19,8.19,0,0,1,8.28,0H38.12A8,8,0,0,1,40,.22a8.15,8.15,0,0,1,6.39,8.06q0,14.36,0,28.69a9,9,0,0,1-.13,1.47A8.16,8.16,0,0,1,40.06,45c-.43.09-.87.15-1.3.22H7.64l-.85-.13A8.18,8.18,0,0,1,.22,38.89C.12,38.47.07,38,0,37.61Z"/></g><g id="lXL6UZ.tif"><path class="cls-2" d="M29.17,33.16l-.36,0H24.62c-.28,0-.39-.08-.46-.35-.44-1.51-.91-3-1.35-4.52a.41.41,0,0,0-.47-.35q-2.55,0-5.1,0c-.29,0-.38.1-.45.36-.41,1.51-.84,3-1.24,4.51a.41.41,0,0,1-.47.35h-4l-.37,0c.2-.65.38-1.28.57-1.9q2.75-9,5.49-18c.1-.3.22-.41.54-.41,1.75,0,3.51,0,5.26,0,.22,0,.35,0,.43.29q3,9.87,6.12,19.74C29.13,33,29.14,33.06,29.17,33.16ZM17.56,24.51H22l-2.27-8.13h-.08Z"/><path class="cls-2" d="M31,18.48h4.52V33.16H31Z"/><path class="cls-2" d="M33.24,16.65a2.3,2.3,0,1,1,0-4.59,2.3,2.3,0,1,1,0,4.59Z"/></g></g></g></svg>