<svg xmlns="http://www.w3.org/2000/svg" viewBox="0 0 46.4 45.25"><defs><style>.cls-1{fill:#470320;}.cls-2{fill:#f93666;}</style></defs><title>indesign</title><g id="Capa_2" data-name="Capa 2"><g id="Capa_1-2" data-name="Capa 1"><g id="joIOn5.tif"><path class="cls-1" d="M0,37.61v-30c.05-.34.09-.67.16-1A8.19,8.19,0,0,1,8.28,0H38.12A8,8,0,0,1,40,.22a8.15,8.15,0,0,1,6.39,8.06q0,14.36,0,28.69a9,9,0,0,1-.13,1.47A8.16,8.16,0,0,1,40.06,45c-.43.09-.87.15-1.3.22H7.64l-.85-.13A8.18,8.18,0,0,1,.22,38.89C.12,38.47.07,38,0,37.61Z"/></g><rect class="cls-2" x="12.18" y="12.88" width="4.41" height="20.79"/><path class="cls-2" d="M29.81,11.3v6.32c-8-.38-10.25,4.79-10.25,8.86a7.6,7.6,0,0,0,8,7.47c4.64,0,6.7-1.39,6.7-1.39V11.3Zm0,18.68s-5.7,1.43-5.7-4.31,5.7-4.31,5.7-4.31Z"/></g></g></svg>