<svg xmlns="http://www.w3.org/2000/svg" viewBox="0 0 56.85 56.85"><defs><style>.cls-1{fill:#fff;}.cls-2{fill:#0051ff;}.cls-3{fill:#181818;}.cls-4{fill:#0f73ff;}.cls-5{fill:#2a9bff;}.cls-6{fill:#0166ff;}.cls-7{fill:#31a6ff;}.cls-8{fill:#3ab8ff;}</style></defs><title>keyshot</title><g id="Capa_2" data-name="Capa 2"><g id="Capa_1-2" data-name="Capa 1"><circle class="cls-1" cx="28.43" cy="28.43" r="28.43"/><g id="K4uAmh"><path class="cls-2" d="M27.41,54.42l-1.16-.09a25.27,25.27,0,0,1-7-1.58A2.11,2.11,0,0,1,18,51.36a45.08,45.08,0,0,1-1.79-7.87c-.22-1.7-.34-3.4-.39-5.11v-.26a.48.48,0,0,1,.28-.51.47.47,0,0,1,.57.15c.57.55,1.13,1.11,1.72,1.65A44.28,44.28,0,0,0,37,49.58c1.15.31,2.32.53,3.49.78.33.07.5.18.53.42s-.14.43-.36.55A24,24,0,0,1,33,54c-1.06.17-2.13.25-3.2.37l-.37,0Z"/><path class="cls-3" d="M16.61,31.76c.23-1.67.43-3.34.71-5a38.9,38.9,0,0,1,1.35-5.41A2.3,2.3,0,0,1,20,19.87,42.61,42.61,0,0,1,30,16.5a1.89,1.89,0,0,1,1.55.39c1.09.82,2.19,1.62,3.24,2.48a42.51,42.51,0,0,1,4.53,4.37,2.53,2.53,0,0,1,.67,2,43.59,43.59,0,0,1-1.09,6.91c-.27,1.1-.6,2.18-.91,3.27a2.11,2.11,0,0,1-1.19,1.37,41.82,41.82,0,0,1-9.53,3.28,5.63,5.63,0,0,1-.69.14,2,2,0,0,1-1.41-.4,44,44,0,0,1-7.49-6.55l-.43-.48a2.11,2.11,0,0,1-.55-1.55Z"/><path class="cls-4" d="M14,22.21a.48.48,0,0,1,.52.61c-.2.8-.41,1.59-.58,2.39a43.09,43.09,0,0,0-.92,6.4,43.68,43.68,0,0,0,0,6.67A44.58,44.58,0,0,0,15.18,49c.11.32.22.64.34,1a.48.48,0,0,1-.13.59.47.47,0,0,1-.61,0A24.73,24.73,0,0,1,7,43.15a25.73,25.73,0,0,1-3.75-8.32c-.18-.73-.31-1.47-.45-2.2a1.88,1.88,0,0,1,.5-1.74c1.13-1.16,2.24-2.33,3.43-3.43a40.37,40.37,0,0,1,6.93-5.11C13.78,22.28,13.9,22.24,14,22.21Z"/><path class="cls-5" d="M54.08,24.59a2,2,0,0,1-.62,1.46c-1,1-2,2.06-3,3a42.29,42.29,0,0,1-7.27,5.42l-.09,0a.47.47,0,0,1-.71-.54c.27-1.14.56-2.27.79-3.41a44.1,44.1,0,0,0,.76-10.76A44.6,44.6,0,0,0,41.36,7l0-.08a.45.45,0,0,1,.12-.59.46.46,0,0,1,.61,0c1,.69,2,1.32,2.93,2.09A25.54,25.54,0,0,1,53.58,22c.2.74.32,1.51.47,2.27C54.07,24.39,54.07,24.49,54.08,24.59Z"/><path class="cls-6" d="M54.35,29.74a24.44,24.44,0,0,1-1.74,8.19A26.33,26.33,0,0,1,45,48.43a2.27,2.27,0,0,1-2,.51,44,44,0,0,1-12.49-4.72.48.48,0,0,1-.3-.51c0-.26.23-.35.46-.41a44.93,44.93,0,0,0,8-2.95A44.76,44.76,0,0,0,53.48,28.87l.1-.12a.4.4,0,0,1,.51-.1.91.91,0,0,1,.28.41.82.82,0,0,1,0,.35C54.37,29.52,54.36,29.63,54.35,29.74Z"/><path class="cls-7" d="M2.47,27.08A26.17,26.17,0,0,1,11.94,8.34a2.16,2.16,0,0,1,1.91-.44,44.48,44.48,0,0,1,12.5,4.71.49.49,0,0,1,.31.52c0,.25-.2.35-.43.41A44.76,44.76,0,0,0,3.4,27.94l-.12.14a.45.45,0,0,1-.52.13.46.46,0,0,1-.29-.47Z"/><path class="cls-8" d="M29.11,2.43A24.75,24.75,0,0,1,37.4,4a2.38,2.38,0,0,1,1.54,1.62,43.28,43.28,0,0,1,1.83,8.58c.14,1.48.2,3,.29,4.46a.48.48,0,0,1-.28.56.52.52,0,0,1-.61-.19A44.52,44.52,0,0,0,18.52,6.94c-.75-.18-1.52-.32-2.28-.47a.49.49,0,0,1-.45-.41.46.46,0,0,1,.3-.5A25.07,25.07,0,0,1,23.16,3,29.41,29.41,0,0,1,29.11,2.43Z"/></g></g></g></svg>