<svg xmlns="http://www.w3.org/2000/svg" viewBox="0 0 46.4 45.25"><defs><style>.cls-1{fill:#011e38;}.cls-2{fill:#3aa6ff;}</style></defs><title>photoshop</title><g id="Capa_2" data-name="Capa 2"><g id="Capa_1-2" data-name="Capa 1"><g id="joIOn5.tif"><path class="cls-1" d="M0,37.61v-30c.05-.34.09-.67.16-1A8.19,8.19,0,0,1,8.28,0H38.12A8,8,0,0,1,40,.22a8.15,8.15,0,0,1,6.39,8.06q0,14.36,0,28.69a9,9,0,0,1-.13,1.47A8.16,8.16,0,0,1,40.06,45c-.43.09-.87.15-1.3.22H7.64l-.85-.13A8.18,8.18,0,0,1,.22,38.89C.12,38.47.07,38,0,37.61Z"/></g><path class="cls-2" d="M16.19,12.34H9.37V32.48h4.1V26h3.15c1.92,0,7.24-1,7.24-6.93S18.59,12.34,16.19,12.34Zm-.32,10.07H13.58V16h3c1.6,0,3.09.91,3.09,3.41S16.94,22.41,15.87,22.41Z"/><path class="cls-2" d="M36.28,17.61v3.78a10.76,10.76,0,0,0-4.37-1c-2.72-.1-2.5,1.65,0,2.56S37,24.81,37,28s-2.93,4.48-5.12,4.85-6-1.06-6-1.06V28a7.22,7.22,0,0,0,4.9,1.33c2.83-.31,2.56-1.54.67-2.39s-4.19-1.55-5-3.25-.8-3.57,1.44-5.71S36.28,17.61,36.28,17.61Z"/></g></g></svg>