<svg xmlns="http://www.w3.org/2000/svg" viewBox="0 0 50.12 51.95"><defs><style>.cls-1{fill:#fff;}</style></defs><title>rhino</title><g id="Capa_2" data-name="Capa 2"><g id="Capa_1-2" data-name="Capa 1"><g id="lu1XvJ"><path d="M50.12,44.1a1.19,1.19,0,0,1-1.2,1.39l-10,1.59L15,50.86l-6.4,1c-1.22.2-1.62-.06-1.81-1.27q-2-12.45-3.95-24.9Q1.58,17.65.28,9.59C.19,9,.11,8.49,0,7.93A1.17,1.17,0,0,1,1.07,6.48L15.48,4.2Q24,2.87,32.55,1.5L41.86,0a1.16,1.16,0,0,1,1.42,1.09c.55,3.36,1.1,6.71,1.64,10.07l2.73,17.25q1.22,7.68,2.44,15.36A2.74,2.74,0,0,1,50.12,44.1Zm-23.44-.7a4.79,4.79,0,0,0,.08-.88,1.14,1.14,0,0,0-.84-1.12.5.5,0,0,0-.45.19c-.27.52.17,1.36.94,2,.52.42.86,0,1.21-.25a3.83,3.83,0,0,0,1.43-2.23A8.65,8.65,0,0,1,32.81,36c1.12-.74,2.24-1.48,3.34-2.24a18.69,18.69,0,0,0,6.28-7c.18-.36.33-.73.5-1.09l-.14-.11a19.67,19.67,0,0,0-2.26,1.1c-1.73,1.11-3.41,2.31-5.12,3.47a11.53,11.53,0,0,1-5.48,2.28,4.34,4.34,0,0,1-1.86-.26c-.59-.22-.59-.61-.11-1s1.07-.85,1.55-1.33a3.16,3.16,0,0,0,.93-2.42,5.77,5.77,0,0,1-6,0,6.9,6.9,0,0,1-3-5.14,3.3,3.3,0,0,0-2.1.92,9.33,9.33,0,0,1-3.17,1.65,16.74,16.74,0,0,0-2.31.84,2.49,2.49,0,0,0-1.48,2,.79.79,0,0,0,.61,1c.45.14.94.17,1.41.28s1,.25,1.55.38v.22a1.48,1.48,0,0,0-.21.13c-.7.64-.7.9,0,1.54a5.78,5.78,0,0,0,.58.53,15.69,15.69,0,0,0,2,1.3c.62.3.86.08,1-.6,0-.23.06-.47.09-.69l1.27-.18c.73-.12,1.46-.29,2.19-.36a1.93,1.93,0,0,1,1.76.65c-2.19-.56-2.94-.27-4.21,1.61-.44.65-.84,1.32-1.31,1.94a1.75,1.75,0,0,1-2.57.58c-.83-.48-1.53-1.17-2.35-1.66a1.28,1.28,0,0,1-.6-1.57,17.35,17.35,0,0,0,.26-2.14c0-.76-.24-1.13-.69-1.22-.11.86-.22,1.73-.35,2.59a15.37,15.37,0,0,1-.32,1.53,1.73,1.73,0,0,0,.77,2.08A89.19,89.19,0,0,1,23,43.27a14,14,0,0,0,1.84,1.27l.15-.16a2,2,0,0,0-.51-2.05c-.39-.48-.79-1-1.18-1.45l.12-.13c.16.1.32.2.47.31s.32.25.61.48a12.07,12.07,0,0,1,0-1.23,1,1,0,0,1,1.55-.87A2.85,2.85,0,0,1,27.52,41,1.85,1.85,0,0,1,26.68,43.4ZM7.27,23.66c-.48-.36-1-.66-1.38-1s-.61-.67-.15-1.22a23.34,23.34,0,0,0,3.33-5.27,14.15,14.15,0,0,0,1.2-8.83c-.12-.56-.36-.71-.91-.62-2.09.36-4.19.67-6.28,1A1.13,1.13,0,0,0,2,9.15c.13.94.33,1.89.48,2.83C3.27,16.86,4,21.74,4.8,26.62a1.55,1.55,0,0,0,.39.88,22.3,22.3,0,0,1,4,4.79c.54.85,1.05,1.73,1.64,2.71.13-.54.25-1,.34-1.38.51-2.46-.15-4.8-.79-7.14a2.8,2.8,0,0,1,.28-.13A26.17,26.17,0,0,0,20,21.5a1.41,1.41,0,0,0,.66-1.43,15.56,15.56,0,0,0-3.23-8.45A10.21,10.21,0,0,0,14.29,9C13.6,14.73,11.78,19.84,7.27,23.66Z"/><path class="cls-1" d="M26.68,43.4A1.85,1.85,0,0,0,27.52,41a2.85,2.85,0,0,0-1.47-1.6,1,1,0,0,0-1.55.87,12.07,12.07,0,0,0,0,1.23c-.29-.23-.44-.36-.61-.48s-.31-.21-.47-.31l-.12.13c.39.49.79,1,1.18,1.45A2,2,0,0,1,25,44.38l-.15.16A14,14,0,0,1,23,43.27a89.19,89.19,0,0,0-9.8-7.75,1.73,1.73,0,0,1-.77-2.08,15.37,15.37,0,0,0,.32-1.53c.13-.86.24-1.73.35-2.59.45.09.73.46.69,1.22a17.35,17.35,0,0,1-.26,2.14,1.28,1.28,0,0,0,.6,1.57c.82.49,1.52,1.18,2.35,1.66A1.75,1.75,0,0,0,19,35.33c.47-.62.87-1.29,1.31-1.94,1.27-1.88,2-2.17,4.21-1.61a1.93,1.93,0,0,0-1.76-.65c-.73.07-1.46.24-2.19.36l-1.27.18c0,.22-.06.46-.09.69-.1.68-.34.9-1,.6a15.69,15.69,0,0,1-2-1.3,5.78,5.78,0,0,1-.58-.53c-.68-.64-.68-.9,0-1.54a1.48,1.48,0,0,1,.21-.13v-.22c-.52-.13-1-.27-1.55-.38s-1-.14-1.41-.28a.79.79,0,0,1-.61-1,2.49,2.49,0,0,1,1.48-2,16.74,16.74,0,0,1,2.31-.84,9.33,9.33,0,0,0,3.17-1.65,3.3,3.3,0,0,1,2.1-.92,6.9,6.9,0,0,0,3,5.14,5.77,5.77,0,0,0,6,0,3.16,3.16,0,0,1-.93,2.42c-.48.48-1,.87-1.55,1.33s-.48.82.11,1a4.34,4.34,0,0,0,1.86.26,11.53,11.53,0,0,0,5.48-2.28c1.71-1.16,3.39-2.36,5.12-3.47a19.67,19.67,0,0,1,2.26-1.1l.14.11c-.17.36-.32.73-.5,1.09a18.69,18.69,0,0,1-6.28,7c-1.1.76-2.22,1.5-3.34,2.24a8.65,8.65,0,0,0-3.76,5.11,3.83,3.83,0,0,1-1.43,2.23c-.35.25-.69.67-1.21.25-.77-.62-1.21-1.46-.94-2a.5.5,0,0,1,.45-.19,1.14,1.14,0,0,1,.84,1.12A4.79,4.79,0,0,1,26.68,43.4Zm-10.31-13a1.64,1.64,0,0,0,2,1.52A1.78,1.78,0,0,0,16.37,30.36Z"/><path class="cls-1" d="M7.27,23.66c4.51-3.82,6.33-8.93,7-14.66a10.21,10.21,0,0,1,3.09,2.62,15.56,15.56,0,0,1,3.23,8.45A1.41,1.41,0,0,1,20,21.5a26.17,26.17,0,0,1-9.31,4.85,2.8,2.8,0,0,0-.28.13c.64,2.34,1.3,4.68.79,7.14-.09.42-.21.84-.34,1.38-.59-1-1.1-1.86-1.64-2.71a22.3,22.3,0,0,0-4-4.79,1.55,1.55,0,0,1-.39-.88C4,21.74,3.27,16.86,2.5,12,2.35,11,2.15,10.09,2,9.15A1.13,1.13,0,0,1,3.08,7.71c2.09-.34,4.19-.65,6.28-1,.55-.09.79.06.91.62a14.15,14.15,0,0,1-1.2,8.83,23.34,23.34,0,0,1-3.33,5.27c-.46.55-.42.73.15,1.22S6.79,23.3,7.27,23.66Z"/><path d="M16.37,30.36a1.78,1.78,0,0,1,2,1.52A1.64,1.64,0,0,1,16.37,30.36Z"/></g></g></g></svg>