<svg xmlns="http://www.w3.org/2000/svg" viewBox="0 0 47.47 49.96"><defs><style>.cls-1{fill:#eb1900;}.cls-2{fill:#850600;}.cls-3{fill:#f83723;}.cls-4{fill:#fff;}</style></defs><title>solid</title><g id="Capa_2" data-name="Capa 2"><g id="Capa_1-2" data-name="Capa 1"><path class="cls-1" d="M23.73,50,0,40V7.49L23.73,15Z"/><path class="cls-2" d="M23.73,50,47.47,40V7.49L23.73,15Z"/><path class="cls-3" d="M0,7.49,23.73,0,47.47,7.49,23.73,15Z"/><path class="cls-4" d="M39.39,31.49l2.06-15.71L43.72,15l-3,20.91-2.23.92L35.85,23.17,33.15,39l-2.36,1L27.48,20.63,30,19.77l2.2,14.56,2.67-16.25,2-.7ZM14.81,33.85a4.54,4.54,0,0,0-.14-1.13,3.46,3.46,0,0,0-.5-1,6.83,6.83,0,0,0-1-1.11c-.42-.39-1-.83-1.61-1.32a21.74,21.74,0,0,1-2-1.65,11,11,0,0,1-1.54-1.78,8.25,8.25,0,0,1-1-2,6.89,6.89,0,0,1-.36-2.25,5.23,5.23,0,0,1,.37-2.06,3.4,3.4,0,0,1,1.07-1.39,3.32,3.32,0,0,1,1.65-.61,5.3,5.3,0,0,1,2.16.27A7,7,0,0,1,14.25,19,8.21,8.21,0,0,1,16,20.87a9.32,9.32,0,0,1,1.1,2.32,8.57,8.57,0,0,1,.38,2.5l-2.67-.88a5.83,5.83,0,0,0-.17-1.4,4.53,4.53,0,0,0-.53-1.23,3.85,3.85,0,0,0-.9-1,4.19,4.19,0,0,0-1.28-.66,3.47,3.47,0,0,0-1.19-.18,1.5,1.5,0,0,0-.84.31,1.54,1.54,0,0,0-.49.71,3.23,3.23,0,0,0-.16,1A3.29,3.29,0,0,0,10,24.49a12.08,12.08,0,0,0,2.4,2.18,20.89,20.89,0,0,1,2.22,1.85,11.39,11.39,0,0,1,1.58,1.92,8.11,8.11,0,0,1,.94,2.06,8.48,8.48,0,0,1,.31,2.28,5.35,5.35,0,0,1-.39,2.16A2.88,2.88,0,0,1,16,38.27a3.15,3.15,0,0,1-1.72.45A6.54,6.54,0,0,1,12,38.27a8.46,8.46,0,0,1-2.12-1.18,9.06,9.06,0,0,1-1.86-1.85,9.28,9.28,0,0,1-1.32-2.42,8.29,8.29,0,0,1-.49-2.9l2.54.91A5.6,5.6,0,0,0,9,32.52a4.77,4.77,0,0,0,.69,1.35,4.61,4.61,0,0,0,1,1,5.61,5.61,0,0,0,1.29.66,2.25,2.25,0,0,0,2.07,0A1.94,1.94,0,0,0,14.81,33.85Z"/></g></g></svg>