<svg xmlns="http://www.w3.org/2000/svg" viewBox="0 0 46.4 45.25"><defs><style>.cls-1{fill:#450139;}.cls-2{fill:#f860fe;}</style></defs><title>xd</title><g id="Capa_2" data-name="Capa 2"><g id="Capa_1-2" data-name="Capa 1"><g id="joIOn5.tif"><path class="cls-1" d="M0,37.61v-30c.05-.34.09-.67.16-1A8.19,8.19,0,0,1,8.28,0H38.12A8,8,0,0,1,40,.22a8.15,8.15,0,0,1,6.39,8.06q0,14.36,0,28.69a9,9,0,0,1-.13,1.47A8.16,8.16,0,0,1,40.06,45c-.43.09-.87.15-1.3.22H7.64l-.85-.13A8.18,8.18,0,0,1,.22,38.89C.12,38.47.07,38,0,37.61Z"/></g><path class="cls-2" d="M35.72,11v6.52c-8.29-.4-10.56,4.93-10.56,9.13a7.84,7.84,0,0,0,8.19,7.7c4.79,0,6.91-1.44,6.91-1.44V11Zm0,19.25s-5.87,1.48-5.87-4.44,5.87-4.44,5.87-4.44Z"/><polygon class="cls-2" points="15.65 20.6 11.49 12.65 6.72 12.65 12.84 22.93 6.13 33.69 11.68 33.69 15.65 25.76 19.62 33.69 25.16 33.69 18.45 22.93 24.57 12.65 19.81 12.65 15.65 20.6"/></g></g></svg>