<?xml version="1.0" encoding="utf-8"?>
<!-- Generator: Adobe Illustrator 22.0.1, SVG Export Plug-In . SVG Version: 6.00 Build 0)  -->
<svg version="1.1" id="Capa_1" xmlns="http://www.w3.org/2000/svg" xmlns:xlink="http://www.w3.org/1999/xlink" x="0px" y="0px"
	 viewBox="0 0 47.6 50" style="enable-background:new 0 0 47.6 50;" xml:space="preserve">
<style type="text/css">
	.st0{opacity:0.5;fill:#666665;}
	.st1{opacity:0.75;fill:#666665;}
	.st2{fill:#666665;}
	.st3{fill:#FFFFFF;}
</style>
<path class="st0" d="M23.7,50L0,40V7.5L23.7,15V50z"/>
<path class="st1" d="M23.7,50l23.7-10V7.5L23.7,15V50z"/>
<path class="st2" d="M0,7.5L23.7,0l23.7,7.5L23.7,15L0,7.5z"/>
<path class="st3" d="M39.4,31.5l2.1-15.7l2.3-0.8l-3,20.9l-2.2,0.9l-2.6-13.7L33.1,39l-2.4,1l-3.3-19.3l2.5-0.9l2.2,14.6l2.7-16.3
	l2-0.7L39.4,31.5z M14.8,33.9c0-0.4,0-0.8-0.1-1.1c-0.1-0.3-0.3-0.7-0.5-1.1c-0.2-0.4-0.6-0.7-1-1.1c-0.4-0.4-1-0.8-1.6-1.3
	c-0.7-0.5-1.4-1.1-2-1.6C9,27,8.5,26.4,8.1,25.8c-0.4-0.6-0.8-1.3-1-2s-0.4-1.5-0.4-2.2c0-0.8,0.1-1.5,0.4-2.1
	c0.3-0.6,0.6-1,1.1-1.4c0.5-0.3,1-0.5,1.7-0.6c0.6-0.1,1.4,0,2.2,0.3c0.8,0.3,1.6,0.7,2.3,1.2c0.7,0.5,1.3,1.2,1.7,1.9
	c0.5,0.7,0.8,1.5,1.1,2.3c0.3,0.8,0.4,1.7,0.4,2.5l-2.7-0.9c0-0.5-0.1-1-0.2-1.4c-0.1-0.4-0.3-0.9-0.5-1.2c-0.2-0.4-0.5-0.7-0.9-1
	s-0.8-0.5-1.3-0.7c-0.5-0.1-0.9-0.2-1.2-0.2c-0.3,0-0.6,0.1-0.8,0.3c-0.2,0.2-0.4,0.4-0.5,0.7c-0.1,0.3-0.2,0.6-0.2,1
	c0,0.7,0.3,1.4,0.8,2.1c0.5,0.7,1.3,1.4,2.4,2.2c0.9,0.6,1.6,1.2,2.2,1.9c0.6,0.6,1.2,1.3,1.6,1.9c0.4,0.7,0.7,1.3,0.9,2.1
	c0.2,0.7,0.3,1.5,0.3,2.3c0,0.9-0.1,1.6-0.4,2.2c-0.3,0.6-0.6,1-1.1,1.3c-0.5,0.3-1,0.4-1.7,0.5c-0.7,0-1.4-0.1-2.2-0.5
	c-0.7-0.3-1.4-0.7-2.1-1.2c-0.7-0.5-1.3-1.1-1.9-1.9c-0.5-0.7-1-1.5-1.3-2.4c-0.3-0.9-0.5-1.9-0.5-2.9l2.5,0.9
	c0,0.6,0.1,1.2,0.2,1.7c0.2,0.5,0.4,1,0.7,1.3c0.3,0.4,0.6,0.7,1,1c0.4,0.3,0.8,0.5,1.3,0.7c0.9,0.3,1.6,0.3,2.1,0
	C14.6,35.2,14.8,34.7,14.8,33.9z"/>
</svg>
